{
    "asset" : {
        "copyright" : "SpaceRage",
        "generator" : "Khronos glTF Blender I/O v1.4.40",
        "version" : "2.0"
    },
    "scene" : 0,
    "scenes" : [
        {
            "name" : "Scene",
            "nodes" : [
                0,
                1,
                2,
                3,
                4
            ]
        }
    ],
    "nodes" : [
        {
            "name" : "Light",
            "rotation" : [
                0.16907575726509094,
                0.7558803558349609,
                -0.27217137813568115,
                0.570947527885437
            ],
            "translation" : [
                4.076245307922363,
                5.903861999511719,
                -1.0054539442062378
            ]
        },
        {
            "name" : "Camera",
            "rotation" : [
                -0.24776805937290192,
                0.5546984672546387,
                -0.7742147445678711,
                -0.1775166392326355
            ],
            "translation" : [
                -749.213134765625,
                -439.8572998046875,
                -1043.6318359375
            ]
        },
        {
            "name" : "Empty",
            "rotation" : [
                0.7071068286895752,
                0,
                0,
                0.7071067094802856
            ],
            "scale" : [
                139.550537109375,
                174.1575469970703,
                174.1575469970703
            ],
            "translation" : [
                111.01226043701172,
                83.39442443847656,
                0
            ]
        },
        {
            "mesh" : 0,
            "name" : "Cube",
            "scale" : [
                30.479999542236328,
                270.66241455078125,
                30.479999542236328
            ]
        },
        {
            "mesh" : 1,
            "name" : "Cylinder",
            "scale" : [
                49.55327606201172,
                18.71356964111328,
                49.55327606201172
            ],
            "translation" : [
                0,
                274.0211486816406,
                0
            ]
        }
    ],
    "materials" : [
        {
            "doubleSided" : true,
            "name" : "Glass",
            "pbrMetallicRoughness" : {
                "baseColorTexture" : {
                    "index" : 0,
                    "texCoord" : 0
                },
                "metallicFactor" : 0.4954545497894287,
                "roughnessFactor" : 0
            }
        },
        {
            "doubleSided" : true,
            "name" : "Base",
            "pbrMetallicRoughness" : {
                "baseColorFactor" : [
                    0.3250657320022583,
                    0.40268242359161377,
                    0.48859596252441406,
                    1
                ],
                "metallicFactor" : 0,
                "roughnessFactor" : 0
            }
        },
        {
            "doubleSided" : true,
            "name" : "White",
            "pbrMetallicRoughness" : {
                "metallicFactor" : 0,
                "roughnessFactor" : 0
            }
        },
        {
            "doubleSided" : true,
            "name" : "GlassDiagonal",
            "pbrMetallicRoughness" : {
                "baseColorTexture" : {
                    "index" : 1,
                    "texCoord" : 0
                },
                "metallicFactor" : 0.42511284351348877,
                "roughnessFactor" : 0
            }
        },
        {
            "doubleSided" : true,
            "name" : "Glass/Black",
            "pbrMetallicRoughness" : {
                "baseColorTexture" : {
                    "index" : 2,
                    "texCoord" : 0
                },
                "metallicFactor" : 0,
                "roughnessFactor" : 0
            }
        },
        {
            "doubleSided" : true,
            "name" : "Material.001",
            "pbrMetallicRoughness" : {
                "baseColorFactor" : [
                    0.07323573529720306,
                    0.07323573529720306,
                    0.07323573529720306,
                    1
                ],
                "metallicFactor" : 0.567375898361206,
                "roughnessFactor" : 0.08510638028383255
            }
        }
    ],
    "meshes" : [
        {
            "name" : "Cube.001",
            "primitives" : [
                {
                    "attributes" : {
                        "POSITION" : 0,
                        "NORMAL" : 1,
                        "TEXCOORD_0" : 2
                    },
                    "indices" : 3,
                    "material" : 0
                },
                {
                    "attributes" : {
                        "POSITION" : 4,
                        "NORMAL" : 5,
                        "TEXCOORD_0" : 6
                    },
                    "indices" : 7,
                    "material" : 1
                },
                {
                    "attributes" : {
                        "POSITION" : 8,
                        "NORMAL" : 9,
                        "TEXCOORD_0" : 10
                    },
                    "indices" : 11,
                    "material" : 2
                },
                {
                    "attributes" : {
                        "POSITION" : 12,
                        "NORMAL" : 13,
                        "TEXCOORD_0" : 14
                    },
                    "indices" : 15,
                    "material" : 3
                },
                {
                    "attributes" : {
                        "POSITION" : 16,
                        "NORMAL" : 17,
                        "TEXCOORD_0" : 18
                    },
                    "indices" : 19,
                    "material" : 4
                }
            ]
        },
        {
            "name" : "Cylinder",
            "primitives" : [
                {
                    "attributes" : {
                        "POSITION" : 20,
                        "NORMAL" : 21,
                        "TEXCOORD_0" : 22
                    },
                    "indices" : 23,
                    "material" : 5
                }
            ]
        }
    ],
    "textures" : [
        {
            "sampler" : 0,
            "source" : 0
        },
        {
            "sampler" : 0,
            "source" : 0
        },
        {
            "sampler" : 0,
            "source" : 1
        }
    ],
    "images" : [
        {
            "bufferView" : 4,
            "mimeType" : "image/jpeg",
            "name" : "GlassTexture"
        },
        {
            "bufferView" : 21,
            "mimeType" : "image/png",
            "name" : "Checker"
        }
    ],
    "accessors" : [
        {
            "bufferView" : 0,
            "componentType" : 5126,
            "count" : 76,
            "max" : [
                0.9999999403953552,
                1,
                0.9999999403953552
            ],
            "min" : [
                -0.9999999403953552,
                -0.791666567325592,
                -0.9999999403953552
            ],
            "type" : "VEC3"
        },
        {
            "bufferView" : 1,
            "componentType" : 5126,
            "count" : 76,
            "type" : "VEC3"
        },
        {
            "bufferView" : 2,
            "componentType" : 5126,
            "count" : 76,
            "type" : "VEC2"
        },
        {
            "bufferView" : 3,
            "componentType" : 5123,
            "count" : 108,
            "type" : "SCALAR"
        },
        {
            "bufferView" : 5,
            "componentType" : 5126,
            "count" : 24,
            "max" : [
                1,
                0.9878584146499634,
                1
            ],
            "min" : [
                -1,
                -1,
                -1
            ],
            "type" : "VEC3"
        },
        {
            "bufferView" : 6,
            "componentType" : 5126,
            "count" : 24,
            "type" : "VEC3"
        },
        {
            "bufferView" : 7,
            "componentType" : 5126,
            "count" : 24,
            "type" : "VEC2"
        },
        {
            "bufferView" : 8,
            "componentType" : 5123,
            "count" : 36,
            "type" : "SCALAR"
        },
        {
            "bufferView" : 9,
            "componentType" : 5126,
            "count" : 156,
            "max" : [
                0.9999999403953552,
                1,
                0.9999999403953552
            ],
            "min" : [
                -0.9999999403953552,
                -0.791666567325592,
                -0.9999999403953552
            ],
            "type" : "VEC3"
        },
        {
            "bufferView" : 10,
            "componentType" : 5126,
            "count" : 156,
            "type" : "VEC3"
        },
        {
            "bufferView" : 11,
            "componentType" : 5126,
            "count" : 156,
            "type" : "VEC2"
        },
        {
            "bufferView" : 12,
            "componentType" : 5123,
            "count" : 246,
            "type" : "SCALAR"
        },
        {
            "bufferView" : 13,
            "componentType" : 5126,
            "count" : 28,
            "max" : [
                0.987424910068512,
                0.9856662750244141,
                0.987424910068512
            ],
            "min" : [
                -0.987424910068512,
                -0.7483358979225159,
                -0.987424910068512
            ],
            "type" : "VEC3"
        },
        {
            "bufferView" : 14,
            "componentType" : 5126,
            "count" : 28,
            "type" : "VEC3"
        },
        {
            "bufferView" : 15,
            "componentType" : 5126,
            "count" : 28,
            "type" : "VEC2"
        },
        {
            "bufferView" : 16,
            "componentType" : 5123,
            "count" : 36,
            "type" : "SCALAR"
        },
        {
            "bufferView" : 17,
            "componentType" : 5126,
            "count" : 16,
            "max" : [
                0.9534624218940735,
                0.8487279415130615,
                0.9534624814987183
            ],
            "min" : [
                -0.9534624814987183,
                0.7758126854896545,
                -0.9534623622894287
            ],
            "type" : "VEC3"
        },
        {
            "bufferView" : 18,
            "componentType" : 5126,
            "count" : 16,
            "type" : "VEC3"
        },
        {
            "bufferView" : 19,
            "componentType" : 5126,
            "count" : 16,
            "type" : "VEC2"
        },
        {
            "bufferView" : 20,
            "componentType" : 5123,
            "count" : 24,
            "type" : "SCALAR"
        },
        {
            "bufferView" : 22,
            "componentType" : 5126,
            "count" : 718,
            "max" : [
                0.3703814744949341,
                5.426505088806152,
                0.37038153409957886
            ],
            "min" : [
                -0.37038153409957886,
                -0.46752387285232544,
                -0.3703814744949341
            ],
            "type" : "VEC3"
        },
        {
            "bufferView" : 23,
            "componentType" : 5126,
            "count" : 718,
            "type" : "VEC3"
        },
        {
            "bufferView" : 24,
            "componentType" : 5126,
            "count" : 718,
            "type" : "VEC2"
        },
        {
            "bufferView" : 25,
            "componentType" : 5123,
            "count" : 3828,
            "type" : "SCALAR"
        }
    ],
    "bufferViews" : [
        {
            "buffer" : 0,
            "byteLength" : 912,
            "byteOffset" : 0
        },
        {
            "buffer" : 0,
            "byteLength" : 912,
            "byteOffset" : 912
        },
        {
            "buffer" : 0,
            "byteLength" : 608,
            "byteOffset" : 1824
        },
        {
            "buffer" : 0,
            "byteLength" : 216,
            "byteOffset" : 2432
        },
        {
            "buffer" : 0,
            "byteLength" : 10906,
            "byteOffset" : 2648
        },
        {
            "buffer" : 0,
            "byteLength" : 288,
            "byteOffset" : 13556
        },
        {
            "buffer" : 0,
            "byteLength" : 288,
            "byteOffset" : 13844
        },
        {
            "buffer" : 0,
            "byteLength" : 192,
            "byteOffset" : 14132
        },
        {
            "buffer" : 0,
            "byteLength" : 72,
            "byteOffset" : 14324
        },
        {
            "buffer" : 0,
            "byteLength" : 1872,
            "byteOffset" : 14396
        },
        {
            "buffer" : 0,
            "byteLength" : 1872,
            "byteOffset" : 16268
        },
        {
            "buffer" : 0,
            "byteLength" : 1248,
            "byteOffset" : 18140
        },
        {
            "buffer" : 0,
            "byteLength" : 492,
            "byteOffset" : 19388
        },
        {
            "buffer" : 0,
            "byteLength" : 336,
            "byteOffset" : 19880
        },
        {
            "buffer" : 0,
            "byteLength" : 336,
            "byteOffset" : 20216
        },
        {
            "buffer" : 0,
            "byteLength" : 224,
            "byteOffset" : 20552
        },
        {
            "buffer" : 0,
            "byteLength" : 72,
            "byteOffset" : 20776
        },
        {
            "buffer" : 0,
            "byteLength" : 192,
            "byteOffset" : 20848
        },
        {
            "buffer" : 0,
            "byteLength" : 192,
            "byteOffset" : 21040
        },
        {
            "buffer" : 0,
            "byteLength" : 128,
            "byteOffset" : 21232
        },
        {
            "buffer" : 0,
            "byteLength" : 48,
            "byteOffset" : 21360
        },
        {
            "buffer" : 0,
            "byteLength" : 3136,
            "byteOffset" : 21408
        },
        {
            "buffer" : 0,
            "byteLength" : 8616,
            "byteOffset" : 24544
        },
        {
            "buffer" : 0,
            "byteLength" : 8616,
            "byteOffset" : 33160
        },
        {
            "buffer" : 0,
            "byteLength" : 5744,
            "byteOffset" : 41776
        },
        {
            "buffer" : 0,
            "byteLength" : 7656,
            "byteOffset" : 47520
        }
    ],
    "samplers" : [
        {
            "magFilter" : 9729,
            "minFilter" : 9986
        }
    ],
    "buffers" : [
        {
            "byteLength" : 55176,
            "uri" : "data:application/octet-stream;base64,"
        }
    ]
}
